<mxfile host="Electron" modified="2024-08-27T13:54:42.281Z" agent="Mozilla/5.0 (Windows NT 10.0; Win64; x64) AppleWebKit/537.36 (KHTML, like Gecko) draw.io/21.2.1 Chrome/112.0.5615.87 Electron/24.1.2 Safari/537.36" etag="nyjh3BjWaE_lkWX6Mafq" version="21.2.1" type="device">
  <diagram name="第 1 页" id="8CZs6SFPXTCOMe4at7cP">
    <mxGraphModel dx="1461" dy="1992" grid="1" gridSize="10" guides="1" tooltips="1" connect="1" arrows="1" fold="1" page="1" pageScale="1" pageWidth="827" pageHeight="1169" math="0" shadow="0">
      <root>
        <mxCell id="0" />
        <mxCell id="1" parent="0" />
        <mxCell id="w9fRXbQU00AZdYGRdtfo-1" value="循环得到8个奇数位，将奇数位字节存入奇数位文件中" style="rounded=0;whiteSpace=wrap;html=1;" vertex="1" parent="1">
          <mxGeometry x="186.88" y="285" width="190" height="40" as="geometry" />
        </mxCell>
        <mxCell id="w9fRXbQU00AZdYGRdtfo-3" value="将当前位从字节的高位往低位存储到奇数位字节" style="rounded=0;whiteSpace=wrap;html=1;" vertex="1" parent="1">
          <mxGeometry x="186.88" y="215" width="190" height="40" as="geometry" />
        </mxCell>
        <mxCell id="w9fRXbQU00AZdYGRdtfo-14" value="文件读取到数据" style="rhombus;whiteSpace=wrap;html=1;" vertex="1" parent="1">
          <mxGeometry x="348.75" y="-230" width="150" height="50" as="geometry" />
        </mxCell>
        <mxCell id="w9fRXbQU00AZdYGRdtfo-16" value="是" style="text;html=1;align=center;verticalAlign=middle;resizable=0;points=[];autosize=1;strokeColor=none;fillColor=none;" vertex="1" parent="1">
          <mxGeometry x="427.5" y="-20" width="40" height="30" as="geometry" />
        </mxCell>
        <mxCell id="w9fRXbQU00AZdYGRdtfo-17" value="否" style="text;html=1;align=center;verticalAlign=middle;resizable=0;points=[];autosize=1;strokeColor=none;fillColor=none;" vertex="1" parent="1">
          <mxGeometry x="518.75" y="-240" width="40" height="30" as="geometry" />
        </mxCell>
        <mxCell id="w9fRXbQU00AZdYGRdtfo-19" value="结束" style="rounded=1;whiteSpace=wrap;html=1;" vertex="1" parent="1">
          <mxGeometry x="600" y="-225" width="102.5" height="40" as="geometry" />
        </mxCell>
        <mxCell id="w9fRXbQU00AZdYGRdtfo-21" value="" style="endArrow=classic;html=1;rounded=0;exitX=0.5;exitY=1;exitDx=0;exitDy=0;" edge="1" parent="1" target="w9fRXbQU00AZdYGRdtfo-14">
          <mxGeometry width="50" height="50" relative="1" as="geometry">
            <mxPoint x="423.75" y="-260" as="sourcePoint" />
            <mxPoint x="498.75" y="-170" as="targetPoint" />
          </mxGeometry>
        </mxCell>
        <mxCell id="w9fRXbQU00AZdYGRdtfo-22" value="奇数位" style="rhombus;whiteSpace=wrap;html=1;" vertex="1" parent="1">
          <mxGeometry x="349.38" y="80" width="150" height="50" as="geometry" />
        </mxCell>
        <mxCell id="w9fRXbQU00AZdYGRdtfo-23" value="" style="endArrow=classic;html=1;rounded=0;exitX=1;exitY=0.5;exitDx=0;exitDy=0;entryX=0;entryY=0.5;entryDx=0;entryDy=0;" edge="1" parent="1" source="w9fRXbQU00AZdYGRdtfo-14" target="w9fRXbQU00AZdYGRdtfo-19">
          <mxGeometry width="50" height="50" relative="1" as="geometry">
            <mxPoint x="448.75" y="-60" as="sourcePoint" />
            <mxPoint x="498.75" y="-110" as="targetPoint" />
          </mxGeometry>
        </mxCell>
        <mxCell id="w9fRXbQU00AZdYGRdtfo-28" value="开始" style="rounded=1;whiteSpace=wrap;html=1;" vertex="1" parent="1">
          <mxGeometry x="368.75" y="-300" width="110" height="40" as="geometry" />
        </mxCell>
        <mxCell id="w9fRXbQU00AZdYGRdtfo-29" value="" style="endArrow=classic;html=1;rounded=0;exitX=0.5;exitY=1;exitDx=0;exitDy=0;entryX=0.5;entryY=0;entryDx=0;entryDy=0;" edge="1" parent="1" source="w9fRXbQU00AZdYGRdtfo-28" target="w9fRXbQU00AZdYGRdtfo-14">
          <mxGeometry width="50" height="50" relative="1" as="geometry">
            <mxPoint x="568.75" y="-30" as="sourcePoint" />
            <mxPoint x="423.75" y="-300" as="targetPoint" />
          </mxGeometry>
        </mxCell>
        <mxCell id="w9fRXbQU00AZdYGRdtfo-30" value="是" style="text;html=1;align=center;verticalAlign=middle;resizable=0;points=[];autosize=1;strokeColor=none;fillColor=none;" vertex="1" parent="1">
          <mxGeometry x="302.5" y="80" width="40" height="30" as="geometry" />
        </mxCell>
        <mxCell id="w9fRXbQU00AZdYGRdtfo-64" value="" style="endArrow=classic;html=1;rounded=0;exitX=0.5;exitY=1;exitDx=0;exitDy=0;entryX=0.5;entryY=0;entryDx=0;entryDy=0;" edge="1" parent="1" source="w9fRXbQU00AZdYGRdtfo-14">
          <mxGeometry width="50" height="50" relative="1" as="geometry">
            <mxPoint x="434" y="-250" as="sourcePoint" />
            <mxPoint x="423.75" y="-150" as="targetPoint" />
          </mxGeometry>
        </mxCell>
        <mxCell id="w9fRXbQU00AZdYGRdtfo-65" value="是" style="text;html=1;align=center;verticalAlign=middle;resizable=0;points=[];autosize=1;strokeColor=none;fillColor=none;" vertex="1" parent="1">
          <mxGeometry x="427.5" y="-185" width="40" height="30" as="geometry" />
        </mxCell>
        <mxCell id="w9fRXbQU00AZdYGRdtfo-66" value="读取二进制位数&lt;br&gt;是否小于一个字节" style="rhombus;whiteSpace=wrap;html=1;" vertex="1" parent="1">
          <mxGeometry x="340" y="-80" width="170" height="60" as="geometry" />
        </mxCell>
        <mxCell id="w9fRXbQU00AZdYGRdtfo-67" value="获取读取的字节" style="rounded=0;whiteSpace=wrap;html=1;" vertex="1" parent="1">
          <mxGeometry x="363.75" y="-150" width="120" height="40" as="geometry" />
        </mxCell>
        <mxCell id="w9fRXbQU00AZdYGRdtfo-68" value="" style="endArrow=classic;html=1;rounded=0;exitX=0.5;exitY=1;exitDx=0;exitDy=0;entryX=0.5;entryY=0;entryDx=0;entryDy=0;" edge="1" parent="1">
          <mxGeometry width="50" height="50" relative="1" as="geometry">
            <mxPoint x="423.71" y="-110" as="sourcePoint" />
            <mxPoint x="423.46" y="-80" as="targetPoint" />
          </mxGeometry>
        </mxCell>
        <mxCell id="w9fRXbQU00AZdYGRdtfo-69" value="否" style="text;html=1;align=center;verticalAlign=middle;resizable=0;points=[];autosize=1;strokeColor=none;fillColor=none;" vertex="1" parent="1">
          <mxGeometry x="530" y="-80" width="40" height="30" as="geometry" />
        </mxCell>
        <mxCell id="w9fRXbQU00AZdYGRdtfo-70" value="" style="endArrow=classic;html=1;rounded=0;exitX=1;exitY=0.5;exitDx=0;exitDy=0;entryX=0;entryY=0.5;entryDx=0;entryDy=0;" edge="1" parent="1">
          <mxGeometry width="50" height="50" relative="1" as="geometry">
            <mxPoint x="510" y="-50.29" as="sourcePoint" />
            <mxPoint x="600" y="-50.29" as="targetPoint" />
          </mxGeometry>
        </mxCell>
        <mxCell id="w9fRXbQU00AZdYGRdtfo-71" value="读取下一字节" style="rounded=0;whiteSpace=wrap;html=1;" vertex="1" parent="1">
          <mxGeometry x="600" y="-70" width="130" height="40" as="geometry" />
        </mxCell>
        <mxCell id="w9fRXbQU00AZdYGRdtfo-72" value="" style="endArrow=classic;html=1;rounded=0;exitX=1;exitY=0.5;exitDx=0;exitDy=0;entryX=1;entryY=0.5;entryDx=0;entryDy=0;" edge="1" parent="1" source="w9fRXbQU00AZdYGRdtfo-71" target="w9fRXbQU00AZdYGRdtfo-67">
          <mxGeometry width="50" height="50" relative="1" as="geometry">
            <mxPoint x="420" y="-60" as="sourcePoint" />
            <mxPoint x="470" y="-110" as="targetPoint" />
            <Array as="points">
              <mxPoint x="760" y="-50" />
              <mxPoint x="760" y="-130" />
            </Array>
          </mxGeometry>
        </mxCell>
        <mxCell id="w9fRXbQU00AZdYGRdtfo-74" value="右移一位获取当前位" style="rounded=0;whiteSpace=wrap;html=1;" vertex="1" parent="1">
          <mxGeometry x="365" y="10" width="120" height="40" as="geometry" />
        </mxCell>
        <mxCell id="w9fRXbQU00AZdYGRdtfo-75" value="" style="endArrow=classic;html=1;rounded=0;exitX=0.5;exitY=1;exitDx=0;exitDy=0;entryX=0.5;entryY=0;entryDx=0;entryDy=0;" edge="1" parent="1">
          <mxGeometry width="50" height="50" relative="1" as="geometry">
            <mxPoint x="425.08" y="-20" as="sourcePoint" />
            <mxPoint x="424.83" y="10" as="targetPoint" />
          </mxGeometry>
        </mxCell>
        <mxCell id="w9fRXbQU00AZdYGRdtfo-76" value="" style="endArrow=classic;html=1;rounded=0;exitX=0.5;exitY=1;exitDx=0;exitDy=0;entryX=0.5;entryY=0;entryDx=0;entryDy=0;" edge="1" parent="1">
          <mxGeometry width="50" height="50" relative="1" as="geometry">
            <mxPoint x="425.08" y="50" as="sourcePoint" />
            <mxPoint x="424.83" y="80" as="targetPoint" />
          </mxGeometry>
        </mxCell>
        <mxCell id="w9fRXbQU00AZdYGRdtfo-77" value="循环得到8个偶数位，将偶数位字节存入偶数位文件中" style="rounded=0;whiteSpace=wrap;html=1;" vertex="1" parent="1">
          <mxGeometry x="478.75" y="285" width="190" height="40" as="geometry" />
        </mxCell>
        <mxCell id="w9fRXbQU00AZdYGRdtfo-78" value="将当前位从字节的高位往低位存储到偶数位字节" style="rounded=0;whiteSpace=wrap;html=1;" vertex="1" parent="1">
          <mxGeometry x="478.75" y="215" width="190" height="40" as="geometry" />
        </mxCell>
        <mxCell id="w9fRXbQU00AZdYGRdtfo-79" value="" style="endArrow=classic;html=1;rounded=0;exitX=0.5;exitY=1;exitDx=0;exitDy=0;" edge="1" parent="1" source="w9fRXbQU00AZdYGRdtfo-78" target="w9fRXbQU00AZdYGRdtfo-77">
          <mxGeometry width="50" height="50" relative="1" as="geometry">
            <mxPoint x="738.75" y="385" as="sourcePoint" />
            <mxPoint x="788.75" y="335" as="targetPoint" />
            <Array as="points">
              <mxPoint x="573.75" y="275" />
            </Array>
          </mxGeometry>
        </mxCell>
        <mxCell id="w9fRXbQU00AZdYGRdtfo-81" value="否" style="text;html=1;align=center;verticalAlign=middle;resizable=0;points=[];autosize=1;strokeColor=none;fillColor=none;" vertex="1" parent="1">
          <mxGeometry x="518.75" y="80" width="40" height="30" as="geometry" />
        </mxCell>
        <mxCell id="w9fRXbQU00AZdYGRdtfo-82" value="" style="endArrow=classic;html=1;rounded=0;exitX=0;exitY=0.5;exitDx=0;exitDy=0;entryX=0.5;entryY=0;entryDx=0;entryDy=0;" edge="1" parent="1" source="w9fRXbQU00AZdYGRdtfo-22" target="w9fRXbQU00AZdYGRdtfo-86">
          <mxGeometry width="50" height="50" relative="1" as="geometry">
            <mxPoint x="469.38" y="160" as="sourcePoint" />
            <mxPoint x="280" y="140" as="targetPoint" />
            <Array as="points">
              <mxPoint x="283" y="105" />
            </Array>
          </mxGeometry>
        </mxCell>
        <mxCell id="w9fRXbQU00AZdYGRdtfo-83" value="" style="endArrow=classic;html=1;rounded=0;" edge="1" parent="1">
          <mxGeometry width="50" height="50" relative="1" as="geometry">
            <mxPoint x="500" y="105" as="sourcePoint" />
            <mxPoint x="574" y="150" as="targetPoint" />
            <Array as="points">
              <mxPoint x="574" y="105" />
            </Array>
          </mxGeometry>
        </mxCell>
        <mxCell id="w9fRXbQU00AZdYGRdtfo-84" value="" style="endArrow=classic;html=1;rounded=0;exitX=0.5;exitY=1;exitDx=0;exitDy=0;entryX=0.5;entryY=0;entryDx=0;entryDy=0;" edge="1" parent="1" source="w9fRXbQU00AZdYGRdtfo-3" target="w9fRXbQU00AZdYGRdtfo-1">
          <mxGeometry width="50" height="50" relative="1" as="geometry">
            <mxPoint x="467.5" y="185" as="sourcePoint" />
            <mxPoint x="517.5" y="135" as="targetPoint" />
          </mxGeometry>
        </mxCell>
        <mxCell id="w9fRXbQU00AZdYGRdtfo-86" value="将该位保存位上一位" style="rounded=0;whiteSpace=wrap;html=1;" vertex="1" parent="1">
          <mxGeometry x="187.5" y="155" width="190" height="30" as="geometry" />
        </mxCell>
        <mxCell id="w9fRXbQU00AZdYGRdtfo-87" value="" style="endArrow=classic;html=1;rounded=0;exitX=0.5;exitY=1;exitDx=0;exitDy=0;entryX=0.5;entryY=0;entryDx=0;entryDy=0;" edge="1" parent="1" source="w9fRXbQU00AZdYGRdtfo-86" target="w9fRXbQU00AZdYGRdtfo-3">
          <mxGeometry width="50" height="50" relative="1" as="geometry">
            <mxPoint x="400" y="260" as="sourcePoint" />
            <mxPoint x="275" y="210" as="targetPoint" />
          </mxGeometry>
        </mxCell>
        <mxCell id="w9fRXbQU00AZdYGRdtfo-94" value="与上一位进行比较，并根据是否精简输出，输出相关日志信息" style="rounded=0;whiteSpace=wrap;html=1;" vertex="1" parent="1">
          <mxGeometry x="478.75" y="150" width="190" height="40" as="geometry" />
        </mxCell>
        <mxCell id="w9fRXbQU00AZdYGRdtfo-95" value="" style="endArrow=classic;html=1;rounded=0;exitX=0.5;exitY=1;exitDx=0;exitDy=0;entryX=0.5;entryY=0;entryDx=0;entryDy=0;" edge="1" parent="1" source="w9fRXbQU00AZdYGRdtfo-94" target="w9fRXbQU00AZdYGRdtfo-78">
          <mxGeometry width="50" height="50" relative="1" as="geometry">
            <mxPoint x="560" y="220" as="sourcePoint" />
            <mxPoint x="610" y="170" as="targetPoint" />
          </mxGeometry>
        </mxCell>
        <mxCell id="w9fRXbQU00AZdYGRdtfo-96" value="" style="endArrow=classic;html=1;rounded=0;exitX=0.486;exitY=0.997;exitDx=0;exitDy=0;exitPerimeter=0;" edge="1" parent="1" source="w9fRXbQU00AZdYGRdtfo-1">
          <mxGeometry width="50" height="50" relative="1" as="geometry">
            <mxPoint x="282" y="330" as="sourcePoint" />
            <mxPoint x="420" y="400" as="targetPoint" />
            <Array as="points">
              <mxPoint x="280" y="360" />
              <mxPoint x="420" y="360" />
            </Array>
          </mxGeometry>
        </mxCell>
        <mxCell id="w9fRXbQU00AZdYGRdtfo-97" value="" style="endArrow=classic;html=1;rounded=0;exitX=0.5;exitY=1;exitDx=0;exitDy=0;" edge="1" parent="1" source="w9fRXbQU00AZdYGRdtfo-77">
          <mxGeometry width="50" height="50" relative="1" as="geometry">
            <mxPoint x="470" y="270" as="sourcePoint" />
            <mxPoint x="440" y="400" as="targetPoint" />
            <Array as="points">
              <mxPoint x="574" y="360" />
              <mxPoint x="440" y="360" />
            </Array>
          </mxGeometry>
        </mxCell>
        <mxCell id="w9fRXbQU00AZdYGRdtfo-99" value="结束" style="rounded=1;whiteSpace=wrap;html=1;" vertex="1" parent="1">
          <mxGeometry x="376.88" y="400" width="110" height="40" as="geometry" />
        </mxCell>
      </root>
    </mxGraphModel>
  </diagram>
</mxfile>
